<?xml version="1.0" encoding="UTF-8" standalone="no"?>
<svg
   height="48"
   width="48"
   version="1.1"
   id="svg16"
   sodipodi:docname="logo.svg"
   inkscape:version="1.3.2 (091e20ef0f, 2023-11-25)"
   inkscape:export-filename="logo.png"
   inkscape:export-xdpi="256"
   inkscape:export-ydpi="256"
   xmlns:inkscape="http://www.inkscape.org/namespaces/inkscape"
   xmlns:sodipodi="http://sodipodi.sourceforge.net/DTD/sodipodi-0.dtd"
   xmlns:xlink="http://www.w3.org/1999/xlink"
   xmlns="http://www.w3.org/2000/svg"
   xmlns:svg="http://www.w3.org/2000/svg">
  <defs
     id="defs16" />
  <sodipodi:namedview
     id="namedview16"
     pagecolor="#ffffff"
     bordercolor="#000000"
     borderopacity="0.25"
     inkscape:showpageshadow="2"
     inkscape:pageopacity="0.0"
     inkscape:pagecheckerboard="0"
     inkscape:deskcolor="#d1d1d1"
     inkscape:zoom="11.844039"
     inkscape:cx="18.025945"
     inkscape:cy="28.9175"
     inkscape:window-width="1307"
     inkscape:window-height="943"
     inkscape:window-x="0"
     inkscape:window-y="0"
     inkscape:window-maximized="0"
     inkscape:current-layer="svg16" />
  <linearGradient
     id="c"
     gradientUnits="userSpaceOnUse"
     x1="10"
     x2="34"
     xlink:href="#a"
     y1="10"
     y2="34" />
  <linearGradient
     id="d"
     gradientTransform="translate(384.57 499.8)"
     gradientUnits="userSpaceOnUse"
     x2="0"
     y1="20"
     y2="44">
    <stop
       offset="0"
       stop-color="#eff0f1"
       id="stop1" />
    <stop
       offset="1"
       stop-color="#bdc3c7"
       id="stop2" />
  </linearGradient>
  <linearGradient
     id="a"
     gradientTransform="translate(384.57 500.8)"
     gradientUnits="userSpaceOnUse"
     x1="10"
     x2="15"
     y1="36"
     y2="41">
    <stop
       offset="0"
       stop-color="#292c2f"
       id="stop3" />
    <stop
       offset="1"
       stop-opacity="0"
       id="stop4" />
  </linearGradient>
  <linearGradient
     id="e"
     gradientTransform="translate(398.67 500.8)"
     gradientUnits="userSpaceOnUse"
     x1="9.905"
     x2="14.905"
     xlink:href="#a"
     y1="36"
     y2="41" />
  <linearGradient
     id="b"
     gradientTransform="matrix(1,0,0,1.08333,1.3508905,-7.2621533)"
     gradientUnits="userSpaceOnUse"
     x1="25.07"
     x2="25"
     y1="33.844"
     y2="10">
    <stop
       offset="0"
       stop-color="#1abc9c"
       id="stop5" />
    <stop
       offset="1"
       stop-color="#2980b9"
       id="stop6" />
  </linearGradient>
  <path
     d="M24 34c-1.662 0-3 1.338-3 3s1.338 3 3 3a2.993 2.993 0 0 0 2.813-2h8.375a2.99 2.99 0 0 0 5.813-1c0-1.662-1.338-3-3-3a2.993 2.993 0 0 0-2.813 2h-8.375A2.99 2.99 0 0 0 24 34"
     fill="#232629"
     opacity=".2"
     id="path8" />
  <path
     d="M388.57 529.8v14h40v-14z"
     fill="url(#d)"
     transform="translate(-384.57 -499.8)"
     id="path9" />
  <path
     d="M26.81 38h8.375a2.99 2.99 0 0 0 5.813-1c0-1.662-1.338-3-3-3a2.993 2.993 0 0 0-2.813 2H26.81c.188 1 .188 1 0 2"
     fill="#4d4d4d"
     opacity=".779"
     id="path10" />
  <path
     d="M406.67 539.13l4.762 4.667h8.143l-9.143-9.429z"
     fill="url(#e)"
     opacity=".2"
     transform="translate(-384.57 -499.8)"
     id="path11" />
  <path
     d="M392.57 539.13l4.619 4.667h13.381l-4.867-6.937-7.133-.067-2.238-2.425z"
     fill="url(#a)"
     opacity=".2"
     transform="translate(-384.57 -499.8)"
     id="path12" />
  <path
     d="M10 34c-1.662 0-3 1.338-3 3s1.338 3 3 3a2.993 2.993 0 0 0 2.813-2h8.375a2.99 2.99 0 0 0 5.813-1c0-1.662-1.338-3-3-3a2.993 2.993 0 0 0-2.813 2h-8.375A2.99 2.99 0 0 0 10 34"
     fill="#1abc9c"
     id="path13" />
  <path
     d="M4 43h40v1H4z"
     fill="#95a5a6"
     id="path14" />
  <path
     d="M4 30h40v1H4z"
     fill="#eff0f1"
     id="path15" />
  <g
     id="g1"
     transform="matrix(0.33333333,0,0,0.33333333,5.358888,-1.5689857)">
    <path
       d="m 5,72.91 h 32.188 v 7.468 H 5 Z M 56.181,11.181 c -21.405,0 -38.819,17.414 -38.819,38.82 H 5 L 21.094,69.177 37.187,50.001 h -12.36 c 0,-17.289 14.065,-31.354 31.353,-31.354 17.287,0 31.353,14.065 31.353,31.354 0,17.286 -14.065,31.353 -31.353,31.353 V 88.82 C 77.586,88.819 95,71.405 95,50.001 95,28.595 77.586,11.181 56.181,11.181 Z m -21.095,20.366 4.878,4.878 c 0.8,-0.956 1.684,-1.84 2.639,-2.64 l -4.877,-4.878 c -0.936,0.821 -1.819,1.702 -2.64,2.64 z m 33.523,-6.674 c -1.11,-0.55 -2.262,-1.025 -3.45,-1.428 l -2.639,6.372 c 1.198,0.377 2.351,0.86 3.447,1.435 z m 6.024,4.034 -4.877,4.878 c 0.955,0.801 1.84,1.685 2.641,2.64 l 4.877,-4.877 C 76.453,30.61 75.571,29.729 74.633,28.907 Z m -10e-4,42.186 c 0.938,-0.821 1.82,-1.702 2.642,-2.641 l -4.878,-4.877 c -0.801,0.956 -1.685,1.839 -2.641,2.641 z m 9.581,-21.092 c 0,-0.629 -0.028,-1.25 -0.068,-1.868 h -6.901 c 0.055,0.616 0.088,1.238 0.088,1.868 0,0.629 -0.033,1.25 -0.088,1.865 h 6.901 c 0.04,-0.616 0.068,-1.238 0.068,-1.865 z M 74.93,40.213 c 0.573,1.098 1.058,2.248 1.434,3.447 l 6.372,-2.638 c -0.401,-1.188 -0.877,-2.341 -1.428,-3.451 z m -16.882,30.85 c -0.616,0.054 -1.238,0.088 -1.868,0.088 -0.629,0 -1.251,-0.034 -1.866,-0.087 v 6.899 c 0.617,0.04 1.238,0.068 1.866,0.068 0.628,0 1.251,-0.028 1.868,-0.068 z m 7.111,5.493 c 1.188,-0.402 2.341,-0.878 3.45,-1.43 l -2.642,-6.377 c -1.097,0.572 -2.248,1.058 -3.447,1.433 z m 9.771,-16.768 6.378,2.64 c 0.55,-1.108 1.026,-2.261 1.428,-3.449 l -6.372,-2.641 c -0.377,1.201 -0.861,2.351 -1.434,3.45 z m -31.18,-34.915 2.643,6.378 c 1.097,-0.573 2.248,-1.058 3.447,-1.434 l -2.639,-6.372 c -1.187,0.402 -2.34,0.877 -3.451,1.428 z m -14.125,16.148 6.372,2.639 c 0.376,-1.199 0.86,-2.35 1.434,-3.447 l -6.378,-2.642 c -0.551,1.111 -1.027,2.263 -1.428,3.45 z M 58.047,28.936 v -6.899 c -0.617,-0.04 -1.239,-0.068 -1.867,-0.068 -0.628,0 -1.249,0.028 -1.866,0.068 v 6.899 c 0.615,-0.054 1.237,-0.086 1.866,-0.086 0.63,0 1.251,0.032 1.867,0.086 z"
       id="path1" />
  </g>
</svg>
