<?xml version="1.0" encoding="UTF-8"?>
<svg xmlns="http://www.w3.org/2000/svg" xmlns:xlink="http://www.w3.org/1999/xlink" width="64px" height="64px" viewBox="0 0 64 64" version="1.1">
<g id="surface1">
<path style=" stroke:none;fill-rule:nonzero;fill:rgb(34.117647%,49.411765%,96.078431%);fill-opacity:1;" d="M 64 32 C 64 49.671875 49.671875 64 32 64 C 14.328125 64 0 49.671875 0 32 C 0 14.328125 14.328125 0 32 0 C 49.671875 0 64 14.328125 64 32 Z M 64 32 "/>
<path style=" stroke:none;fill-rule:nonzero;fill:rgb(100%,100%,100%);fill-opacity:1;" d="M 52.203125 33.027344 C 52.203125 22.449219 43.257812 13.875 32.222656 13.875 L 22.230469 13.875 L 27.078125 9.585938 L 24.761719 7.492188 L 16.332031 14.871094 L 15.597656 15.476562 L 16.332031 16.074219 L 24.761719 23.457031 L 27.078125 21.363281 L 22.230469 17.074219 L 32.222656 17.074219 C 41.417969 17.074219 48.871094 24.21875 48.871094 33.035156 C 48.871094 41.847656 41.417969 48.996094 32.222656 48.996094 C 23.027344 48.996094 15.570312 41.847656 15.570312 33.035156 C 15.570312 30.753906 16.105469 28.613281 17.003906 26.648438 L 13.582031 26.648438 C 12.828125 28.667969 12.242188 30.769531 12.242188 33.035156 C 12.242188 43.613281 21.1875 52.1875 32.222656 52.1875 C 43.257812 52.1875 52.203125 43.613281 52.203125 33.035156 Z M 45.542969 29.835938 L 28.890625 29.835938 L 28.890625 45.796875 L 32.222656 45.796875 L 32.222656 33.027344 L 45.542969 33.027344 Z M 45.542969 29.835938 "/>
</g>
</svg>
