<?xml version="1.0" encoding="UTF-8" standalone="no"?>
<svg
   height="48"
   width="48"
   version="1.1"
   id="svg16"
   sodipodi:docname="novarewind4.svg"
   inkscape:version="1.3.2 (091e20ef0f, 2023-11-25)"
   inkscape:export-filename="novarewind4.png"
   inkscape:export-xdpi="256"
   inkscape:export-ydpi="256"
   xmlns:inkscape="http://www.inkscape.org/namespaces/inkscape"
   xmlns:sodipodi="http://sodipodi.sourceforge.net/DTD/sodipodi-0.dtd"
   xmlns:xlink="http://www.w3.org/1999/xlink"
   xmlns="http://www.w3.org/2000/svg"
   xmlns:svg="http://www.w3.org/2000/svg">
  <defs
     id="defs16" />
  <sodipodi:namedview
     id="namedview16"
     pagecolor="#ffffff"
     bordercolor="#000000"
     borderopacity="0.25"
     inkscape:showpageshadow="2"
     inkscape:pageopacity="0.0"
     inkscape:pagecheckerboard="0"
     inkscape:deskcolor="#d1d1d1"
     inkscape:zoom="11.844039"
     inkscape:cx="18.025945"
     inkscape:cy="28.9175"
     inkscape:window-width="1307"
     inkscape:window-height="943"
     inkscape:window-x="0"
     inkscape:window-y="0"
     inkscape:window-maximized="0"
     inkscape:current-layer="svg16" />
  <linearGradient
     id="c"
     gradientUnits="userSpaceOnUse"
     x1="10"
     x2="34"
     xlink:href="#a"
     y1="10"
     y2="34" />
  <linearGradient
     id="d"
     gradientTransform="translate(384.57 499.8)"
     gradientUnits="userSpaceOnUse"
     x2="0"
     y1="20"
     y2="44">
    <stop
       offset="0"
       stop-color="#eff0f1"
       id="stop1" />
    <stop
       offset="1"
       stop-color="#bdc3c7"
       id="stop2" />
  </linearGradient>
  <linearGradient
     id="a"
     gradientTransform="translate(384.57 500.8)"
     gradientUnits="userSpaceOnUse"
     x1="10"
     x2="15"
     y1="36"
     y2="41">
    <stop
       offset="0"
       stop-color="#292c2f"
       id="stop3" />
    <stop
       offset="1"
       stop-opacity="0"
       id="stop4" />
  </linearGradient>
  <linearGradient
     id="e"
     gradientTransform="translate(398.67 500.8)"
     gradientUnits="userSpaceOnUse"
     x1="9.905"
     x2="14.905"
     xlink:href="#a"
     y1="36"
     y2="41" />
  <linearGradient
     id="b"
     gradientTransform="matrix(1,0,0,1.08333,1.3508905,-7.2621533)"
     gradientUnits="userSpaceOnUse"
     x1="25.07"
     x2="25"
     y1="33.844"
     y2="10">
    <stop
       offset="0"
       stop-color="#1abc9c"
       id="stop5" />
    <stop
       offset="1"
       stop-color="#2980b9"
       id="stop6" />
  </linearGradient>
  <path
     d="M24 34c-1.662 0-3 1.338-3 3s1.338 3 3 3a2.993 2.993 0 0 0 2.813-2h8.375a2.99 2.99 0 0 0 5.813-1c0-1.662-1.338-3-3-3a2.993 2.993 0 0 0-2.813 2h-8.375A2.99 2.99 0 0 0 24 34"
     fill="#232629"
     opacity=".2"
     id="path8" />
  <path
     d="M388.57 529.8v14h40v-14z"
     fill="url(#d)"
     transform="translate(-384.57 -499.8)"
     id="path9" />
  <path
     d="M26.81 38h8.375a2.99 2.99 0 0 0 5.813-1c0-1.662-1.338-3-3-3a2.993 2.993 0 0 0-2.813 2H26.81c.188 1 .188 1 0 2"
     fill="#4d4d4d"
     opacity=".779"
     id="path10" />
  <path
     d="M406.67 539.13l4.762 4.667h8.143l-9.143-9.429z"
     fill="url(#e)"
     opacity=".2"
     transform="translate(-384.57 -499.8)"
     id="path11" />
  <path
     d="M392.57 539.13l4.619 4.667h13.381l-4.867-6.937-7.133-.067-2.238-2.425z"
     fill="url(#a)"
     opacity=".2"
     transform="translate(-384.57 -499.8)"
     id="path12" />
  <path
     d="M10 34c-1.662 0-3 1.338-3 3s1.338 3 3 3a2.993 2.993 0 0 0 2.813-2h8.375a2.99 2.99 0 0 0 5.813-1c0-1.662-1.338-3-3-3a2.993 2.993 0 0 0-2.813 2h-8.375A2.99 2.99 0 0 0 10 34"
     fill="#1abc9c"
     id="path13" />
  <path
     d="M4 43h40v1H4z"
     fill="#95a5a6"
     id="path14" />
  <path
     d="M4 30h40v1H4z"
     fill="#eff0f1"
     id="path15" />
  <g
     id="g37"
     transform="matrix(0.45693852,0,0,0.45648407,10.61682,1.6319581)"
     style="opacity:1;fill:#000000;fill-opacity:1;stroke:#000000;stroke-width:1.29868;stroke-dasharray:none;stroke-opacity:1">
    <path
       d="m 29.98,52 c 12.13,0 22,-9.87 22,-22 0,-12.13 -9.87,-22 -22,-22 -12.13,0 -22,9.87 -22,22 0,12.13 9.87,22 22,22 z m 0,-42 c 11.03,0 20,8.97 20,20 0,11.03 -8.97,20 -20,20 -11.03,0 -20,-8.97 -20,-20 0,-11.03 8.97,-20 20,-20 z"
       id="path1"
       style="fill:#000000;fill-opacity:1;stroke:#000000;stroke-width:1.29868;stroke-dasharray:none;stroke-opacity:1" />
    <path
       d="m 29.98,15 c 0.55,0 1,-0.45 1,-1 v -2 c 0,-0.55 -0.45,-1 -1,-1 -0.55,0 -1,0.45 -1,1 v 2 c 0,0.55 0.45,1 1,1 z"
       id="path2"
       style="fill:#000000;fill-opacity:1;stroke:#000000;stroke-width:1.29868;stroke-dasharray:none;stroke-opacity:1" />
    <path
       d="m 29.98,45 c -0.55,0 -1,0.45 -1,1 v 2 c 0,0.55 0.45,1 1,1 0.55,0 1,-0.45 1,-1 v -2 c 0,-0.55 -0.45,-1 -1,-1 z"
       id="path3"
       style="fill:#000000;fill-opacity:1;stroke:#000000;stroke-width:1.29868;stroke-dasharray:none;stroke-opacity:1" />
    <path
       d="m 45.98,31 h 2 c 0.55,0 1,-0.45 1,-1 0,-0.55 -0.45,-1 -1,-1 h -2 c -0.55,0 -1,0.45 -1,1 0,0.55 0.45,1 1,1 z"
       id="path4"
       style="fill:#000000;fill-opacity:1;stroke:#000000;stroke-width:1.29868;stroke-dasharray:none;stroke-opacity:1" />
    <path
       d="m 13.98,29 h -2 c -0.55,0 -1,0.45 -1,1 0,0.55 0.45,1 1,1 h 2 c 0.55,0 1,-0.45 1,-1 0,-0.55 -0.45,-1 -1,-1 z"
       id="path5"
       style="fill:#000000;fill-opacity:1;stroke:#000000;stroke-width:1.29868;stroke-dasharray:none;stroke-opacity:1" />
    <path
       d="m 18.98,41 c 0.26,0 0.51,-0.1 0.71,-0.29 l 8.27,-8.27 c 0.59,0.35 1.28,0.57 2.02,0.57 2.21,0 4,-1.79 4,-4 0,-1.86 -1.28,-3.41 -3,-3.86 V 20 c 0,-0.55 -0.45,-1 -1,-1 -0.55,0 -1,0.45 -1,1 v 5.14 c -1.72,0.45 -3,2 -3,3.86 0,0.74 0.22,1.42 0.57,2.02 l -8.27,8.27 c -0.39,0.39 -0.39,1.02 0,1.41 0.19,0.2 0.44,0.3 0.7,0.3 z m 11,-14 c 1.1,0 2,0.9 2,2 0,1.1 -0.9,2 -2,2 -1.1,0 -2,-0.9 -2,-2 0,-1.1 0.9,-2 2,-2 z"
       id="path6-3"
       style="fill:#000000;fill-opacity:1;stroke:#000000;stroke-width:1.29868;stroke-dasharray:none;stroke-opacity:1" />
    <path
       d="m 10.06,10 h 7.92 c 0.55,0 1,-0.45 1,-1 0,-0.55 -0.45,-1 -1,-1 h -5.3 c 4.92,-3.89 10.97,-6 17.3,-6 15.44,0 28,12.56 28,28 0,0.55 0.45,1 1,1 0.55,0 1,-0.45 1,-1 C 59.98,13.46 46.52,0 29.98,0 23,0 16.34,2.41 10.98,6.81 V 1 c 0,-0.55 -0.45,-1 -1,-1 -0.55,0 -1,0.45 -1,1 v 9 h 0.89 c 0.07,0.01 0.13,0.01 0.19,0 z"
       id="path7-6"
       style="fill:#000000;fill-opacity:1;stroke:#000000;stroke-width:1.29868;stroke-dasharray:none;stroke-opacity:1" />
    <path
       d="m 8.33,49.3 c -0.4,0.38 -0.41,1.01 -0.03,1.41 0.19,0.21 0.46,0.31 0.72,0.31 0.25,0 0.5,-0.09 0.69,-0.28 0.4,-0.38 0.42,-1.01 0.03,-1.41 C 9.36,48.93 8.73,48.92 8.33,49.3 Z"
       id="path8-7"
       style="fill:#000000;fill-opacity:1;stroke:#000000;stroke-width:1.29868;stroke-dasharray:none;stroke-opacity:1" />
    <path
       d="M 7.85,47.14 C 7.51,46.7 6.89,46.62 6.45,46.96 c -0.44,0.34 -0.52,0.97 -0.18,1.4 0.2,0.26 0.5,0.39 0.79,0.39 0.22,0 0.43,-0.07 0.62,-0.21 0.43,-0.34 0.51,-0.97 0.17,-1.4 z"
       id="path9-5"
       style="fill:#000000;fill-opacity:1;stroke:#000000;stroke-width:1.29868;stroke-dasharray:none;stroke-opacity:1" />
    <path
       d="m 12.76,53.34 c -0.32,0.45 -0.2,1.07 0.25,1.39 0.18,0.12 0.37,0.17 0.57,0.17 0.32,0 0.63,-0.15 0.82,-0.43 0.32,-0.45 0.2,-1.08 -0.25,-1.39 -0.46,-0.31 -1.08,-0.2 -1.39,0.26 z"
       id="path10-3"
       style="fill:#000000;fill-opacity:1;stroke:#000000;stroke-width:1.29868;stroke-dasharray:none;stroke-opacity:1" />
    <path
       d="M 6.2,44.76 C 5.91,44.29 5.29,44.15 4.82,44.44 c -0.47,0.3 -0.61,0.91 -0.32,1.38 0.19,0.3 0.52,0.47 0.85,0.47 0.18,0 0.36,-0.05 0.53,-0.15 0.47,-0.29 0.61,-0.91 0.32,-1.38 z"
       id="path11-5"
       style="fill:#000000;fill-opacity:1;stroke:#000000;stroke-width:1.29868;stroke-dasharray:none;stroke-opacity:1" />
    <path
       d="m 1,32.12 c 0.01,0 0.03,0 0.04,0 C 1.59,32.1 2.02,31.63 2,31.08 1.98,30.53 1.51,30.1 0.96,30.12 0.41,30.14 -0.02,30.6 0,31.16 c 0.02,0.53 0.47,0.96 1,0.96 z"
       id="path12-6"
       style="fill:#000000;fill-opacity:1;stroke:#000000;stroke-width:1.29868;stroke-dasharray:none;stroke-opacity:1" />
    <path
       d="m 16.61,54.6 c -0.48,-0.27 -1.09,-0.09 -1.36,0.4 -0.26,0.48 -0.08,1.09 0.41,1.35 0.15,0.09 0.31,0.13 0.47,0.13 0.36,0 0.7,-0.19 0.88,-0.53 0.27,-0.48 0.09,-1.09 -0.4,-1.35 z"
       id="path13-2"
       style="fill:#000000;fill-opacity:1;stroke:#000000;stroke-width:1.29868;stroke-dasharray:none;stroke-opacity:1" />
    <path
       d="M 1.41,35.09 C 1.96,35.01 2.34,34.51 2.26,33.96 2.18,33.41 1.67,33.03 1.13,33.11 0.58,33.19 0.2,33.7 0.28,34.24 c 0.07,0.5 0.5,0.86 0.99,0.86 0.05,0 0.09,0 0.14,-0.01 z"
       id="path14-9"
       style="fill:#000000;fill-opacity:1;stroke:#000000;stroke-width:1.29868;stroke-dasharray:none;stroke-opacity:1" />
    <path
       d="m 4.8,42.23 c -0.25,-0.5 -0.84,-0.7 -1.34,-0.46 -0.5,0.24 -0.7,0.84 -0.46,1.34 0.17,0.35 0.53,0.56 0.9,0.56 0.14,0 0.29,-0.03 0.43,-0.1 0.5,-0.24 0.71,-0.84 0.47,-1.34 z"
       id="path15-1"
       style="fill:#000000;fill-opacity:1;stroke:#000000;stroke-width:1.29868;stroke-dasharray:none;stroke-opacity:1" />
    <path
       d="M 2.09,38.02 C 2.62,37.88 2.95,37.34 2.82,36.8 2.68,36.27 2.14,35.94 1.6,36.08 c -0.53,0.13 -0.86,0.67 -0.72,1.21 0.11,0.45 0.52,0.76 0.97,0.76 0.08,0 0.16,-0.01 0.24,-0.03 z"
       id="path16"
       style="fill:#000000;fill-opacity:1;stroke:#000000;stroke-width:1.29868;stroke-dasharray:none;stroke-opacity:1" />
    <path
       d="M 3.66,39.57 C 3.48,39.05 2.9,38.78 2.38,38.97 1.86,39.16 1.6,39.73 1.79,40.25 c 0.14,0.41 0.53,0.66 0.93,0.66 0.12,0 0.23,-0.02 0.35,-0.06 0.52,-0.19 0.78,-0.76 0.59,-1.28 z"
       id="path17"
       style="fill:#000000;fill-opacity:1;stroke:#000000;stroke-width:1.29868;stroke-dasharray:none;stroke-opacity:1" />
    <path
       d="m 10.44,51.43 c -0.36,0.42 -0.31,1.05 0.11,1.41 0.19,0.16 0.42,0.24 0.65,0.24 0.28,0 0.56,-0.12 0.76,-0.35 0.36,-0.42 0.31,-1.05 -0.11,-1.41 -0.42,-0.36 -1.05,-0.31 -1.41,0.11 z"
       id="path18"
       style="fill:#000000;fill-opacity:1;stroke:#000000;stroke-width:1.29868;stroke-dasharray:none;stroke-opacity:1" />
    <path
       d="m 55.68,43.46 c -0.48,-0.27 -1.09,-0.1 -1.37,0.38 h 0.01 c -0.28,0.48 -0.11,1.09 0.37,1.36 0.15,0.09 0.32,0.13 0.49,0.13 0.35,0 0.69,-0.18 0.87,-0.5 0.28,-0.48 0.11,-1.09 -0.37,-1.37 z"
       id="path19"
       style="fill:#000000;fill-opacity:1;stroke:#000000;stroke-width:1.29868;stroke-dasharray:none;stroke-opacity:1" />
    <path
       d="m 52.75,46.27 c -0.32,0.45 -0.22,1.08 0.23,1.4 0.18,0.13 0.38,0.19 0.58,0.19 0.32,0 0.62,-0.15 0.82,-0.42 0.32,-0.45 0.22,-1.07 -0.23,-1.4 -0.45,-0.32 -1.08,-0.21 -1.4,0.23 z"
       id="path20"
       style="fill:#000000;fill-opacity:1;stroke:#000000;stroke-width:1.29868;stroke-dasharray:none;stroke-opacity:1" />
    <path
       d="m 50.95,48.54 c -0.37,0.41 -0.33,1.04 0.08,1.41 0.19,0.17 0.43,0.25 0.66,0.25 0.28,0 0.55,-0.11 0.75,-0.34 0.37,-0.41 0.33,-1.04 -0.08,-1.41 -0.42,-0.36 -1.05,-0.33 -1.41,0.09 z"
       id="path21"
       style="fill:#000000;fill-opacity:1;stroke:#000000;stroke-width:1.29868;stroke-dasharray:none;stroke-opacity:1" />
    <path
       d="m 48.92,50.61 v 0 c -0.41,0.37 -0.44,1 -0.06,1.41 0.2,0.21 0.47,0.32 0.74,0.32 0.24,0 0.48,-0.09 0.67,-0.26 0.41,-0.38 0.43,-1.01 0.06,-1.41 -0.37,-0.41 -1.01,-0.44 -1.41,-0.06 z"
       id="path22"
       style="fill:#000000;fill-opacity:1;stroke:#000000;stroke-width:1.29868;stroke-dasharray:none;stroke-opacity:1" />
    <path
       d="m 46.69,52.45 c -0.44,0.33 -0.53,0.96 -0.2,1.4 0.19,0.27 0.49,0.4 0.8,0.4 0.21,0 0.42,-0.06 0.59,-0.19 0.45,-0.33 0.54,-0.96 0.21,-1.4 -0.33,-0.45 -0.96,-0.54 -1.4,-0.21 z"
       id="path23"
       style="fill:#000000;fill-opacity:1;stroke:#000000;stroke-width:1.29868;stroke-dasharray:none;stroke-opacity:1" />
    <path
       d="m 58.93,32 c -0.55,-0.06 -1.04,0.34 -1.1,0.89 -0.06,0.55 0.34,1.04 0.89,1.1 0.04,0 0.07,0 0.11,0 0.5,0 0.94,-0.38 0.99,-0.9 0.06,-0.54 -0.34,-1.04 -0.89,-1.09 z"
       id="path24"
       style="fill:#000000;fill-opacity:1;stroke:#000000;stroke-width:1.29868;stroke-dasharray:none;stroke-opacity:1" />
    <path
       d="m 56.94,40.74 c -0.51,-0.22 -1.1,0.01 -1.32,0.51 -0.23,0.51 0,1.1 0.51,1.32 0.13,0.06 0.27,0.09 0.4,0.09 0.39,0 0.75,-0.23 0.92,-0.6 0.22,-0.51 -0.01,-1.1 -0.51,-1.32 z"
       id="path25"
       style="fill:#000000;fill-opacity:1;stroke:#000000;stroke-width:1.29868;stroke-dasharray:none;stroke-opacity:1" />
    <path
       d="m 58.57,34.98 c -0.54,-0.12 -1.07,0.23 -1.18,0.77 -0.12,0.54 0.23,1.07 0.77,1.18 0.07,0.02 0.14,0.02 0.21,0.02 0.46,0 0.88,-0.32 0.97,-0.79 0.12,-0.54 -0.23,-1.07 -0.77,-1.18 z"
       id="path26"
       style="fill:#000000;fill-opacity:1;stroke:#000000;stroke-width:1.29868;stroke-dasharray:none;stroke-opacity:1" />
    <path
       d="m 57.9,37.9 c -0.52,-0.17 -1.09,0.12 -1.25,0.65 -0.17,0.52 0.12,1.09 0.64,1.26 0.1,0.03 0.21,0.04 0.31,0.04 0.42,0 0.81,-0.27 0.95,-0.69 0.17,-0.53 -0.12,-1.09 -0.65,-1.26 z"
       id="path27"
       style="fill:#000000;fill-opacity:1;stroke:#000000;stroke-width:1.29868;stroke-dasharray:none;stroke-opacity:1" />
    <path
       d="m 19.22,55.85 c -0.51,-0.21 -1.09,0.03 -1.3,0.54 -0.22,0.51 0.02,1.09 0.53,1.31 0.13,0.05 0.26,0.07 0.39,0.07 0.39,0 0.76,-0.23 0.92,-0.61 0.21,-0.51 -0.03,-1.1 -0.54,-1.31 z"
       id="path28"
       style="fill:#000000;fill-opacity:1;stroke:#000000;stroke-width:1.29868;stroke-dasharray:none;stroke-opacity:1" />
    <path
       d="m 30.52,57.99 c -0.55,0.01 -0.99,0.47 -0.98,1.02 0.01,0.55 0.46,0.98 1,0.98 0.01,0 0.01,0 0.02,0 0.55,-0.01 0.99,-0.46 0.98,-1.02 -0.01,-0.55 -0.47,-0.99 -1.02,-0.98 z"
       id="path29"
       style="fill:#000000;fill-opacity:1;stroke:#000000;stroke-width:1.29868;stroke-dasharray:none;stroke-opacity:1" />
    <path
       d="m 24.76,57.51 c -0.54,-0.1 -1.07,0.25 -1.17,0.8 -0.1,0.54 0.25,1.06 0.8,1.17 0.06,0.01 0.12,0.01 0.18,0.01 0.47,0 0.89,-0.33 0.99,-0.81 0.1,-0.54 -0.26,-1.07 -0.8,-1.17 z"
       id="path30"
       style="fill:#000000;fill-opacity:1;stroke:#000000;stroke-width:1.29868;stroke-dasharray:none;stroke-opacity:1" />
    <path
       d="m 27.63,57.9 c -0.55,-0.05 -1.04,0.36 -1.08,0.91 -0.05,0.56 0.36,1.04 0.91,1.09 0,-0.01 0,-0.01 0,-0.01 0.03,0.01 0.06,0.01 0.08,0.01 0.52,0 0.96,-0.4 1,-0.92 0.04,-0.55 -0.36,-1.03 -0.91,-1.08 z"
       id="path31"
       style="fill:#000000;fill-opacity:1;stroke:#000000;stroke-width:1.29868;stroke-dasharray:none;stroke-opacity:1" />
    <path
       d="m 21.95,56.83 c -0.53,-0.16 -1.09,0.14 -1.25,0.66 -0.15,0.53 0.14,1.09 0.67,1.25 0.1,0.03 0.2,0.04 0.29,0.04 0.43,0 0.83,-0.28 0.96,-0.71 0.16,-0.53 -0.14,-1.09 -0.67,-1.24 z"
       id="path32"
       style="fill:#000000;fill-opacity:1;stroke:#000000;stroke-width:1.29868;stroke-dasharray:none;stroke-opacity:1" />
    <path
       d="m 44.28,54.06 c -0.47,0.29 -0.63,0.9 -0.34,1.37 0.18,0.32 0.52,0.49 0.86,0.49 0.17,0 0.35,-0.04 0.51,-0.14 0.47,-0.28 0.63,-0.9 0.34,-1.37 -0.28,-0.47 -0.89,-0.63 -1.37,-0.35 z"
       id="path33"
       style="fill:#000000;fill-opacity:1;stroke:#000000;stroke-width:1.29868;stroke-dasharray:none;stroke-opacity:1" />
    <path
       d="m 39.04,56.5 c -0.52,0.17 -0.8,0.74 -0.62,1.27 0.14,0.41 0.53,0.67 0.94,0.67 0.11,0 0.22,-0.02 0.33,-0.05 0.52,-0.18 0.8,-0.75 0.62,-1.27 -0.18,-0.53 -0.75,-0.8 -1.27,-0.62 z"
       id="path34"
       style="fill:#000000;fill-opacity:1;stroke:#000000;stroke-width:1.29868;stroke-dasharray:none;stroke-opacity:1" />
    <path
       d="m 41.73,55.42 c -0.51,0.23 -0.72,0.82 -0.49,1.32 0.17,0.37 0.53,0.58 0.91,0.58 0.14,0 0.28,-0.03 0.42,-0.09 0.5,-0.23 0.72,-0.83 0.48,-1.33 -0.23,-0.5 -0.82,-0.72 -1.32,-0.48 z"
       id="path35"
       style="fill:#000000;fill-opacity:1;stroke:#000000;stroke-width:1.29868;stroke-dasharray:none;stroke-opacity:1" />
    <path
       d="m 36.26,57.29 c -0.54,0.12 -0.88,0.66 -0.75,1.2 0.1,0.46 0.52,0.77 0.97,0.77 0.08,0 0.15,0 0.23,-0.02 0.53,-0.12 0.87,-0.66 0.75,-1.2 -0.13,-0.54 -0.66,-0.87 -1.2,-0.75 z"
       id="path36"
       style="fill:#000000;fill-opacity:1;stroke:#000000;stroke-width:1.29868;stroke-dasharray:none;stroke-opacity:1" />
    <path
       d="m 33.41,57.79 c -0.55,0.07 -0.94,0.57 -0.87,1.11 0.06,0.51 0.49,0.88 0.99,0.88 0.04,0 0.08,0 0.12,-0.01 0,0.01 0,0.01 0,0.01 0.55,-0.07 0.94,-0.57 0.87,-1.12 -0.06,-0.55 -0.56,-0.94 -1.11,-0.87 z"
       id="path37"
       style="fill:#000000;fill-opacity:1;stroke:#000000;stroke-width:1.29868;stroke-dasharray:none;stroke-opacity:1" />
  </g>
</svg>
